<svg version="1.1" xmlns="http://www.w3.org/2000/svg" xmlns:xlink="http://www.w3.org/1999/xlink" width="1956" height="1564"><defs/><g><g><path fill="none" stroke="#000000" paint-order="fill stroke markers" d=" M 10 10 L 1946 10 L 1946 1554 L 10 1554 L 10 10" stroke-miterlimit="10" stroke-dasharray=""/></g><g><path fill="#ffffff" stroke="none" paint-order="stroke fill markers" d=" M 10 10 L 10 33 L 280.34423828125 33 L 291.84423828125 21.5 L 291.84423828125 10 L 10 10"/></g><g><path fill="none" stroke="#000000" paint-order="fill stroke markers" d=" M 10 10 L 10 33 L 280.34423828125 33 L 291.84423828125 21.5 L 291.84423828125 10 L 10 10 L 10 10" stroke-miterlimit="10" stroke-dasharray=""/></g><g><g><path fill="none" stroke="none"/><text fill="#000000" stroke="none" font-family="Arial" font-size="13px" font-style="normal" font-weight="normal" text-decoration="undefined" x="273.037109375" y="27.5" text-anchor="middle" dominant-baseline="central" transform="matrix(1 0 0 1 -118 -6)">Diagramme séquence traitement principal</text></g></g><g><g><path fill="none" stroke="none"/><text fill="#000000" stroke="none" font-family="Arial" font-size="13px" font-style="normal" font-weight="bold" text-decoration="undefined" x="139.864990234375" y="27.5" text-anchor="middle" dominant-baseline="central" transform="matrix(1 0 0 1 -118 -6)">sd</text></g></g><g><rect fill="#C0C0C0" stroke="none" x="583" y="47" width="72.736328125" height="40" transform="matrix(1 0 0 1 -118 -6)" fill-opacity="0.2"/></g><g><rect fill="#ffffff" stroke="none" x="576" y="40" width="72.736328125" height="40" transform="matrix(1 0 0 1 -118 -6)"/></g><g><path fill="none" stroke="#000000" paint-order="fill stroke markers" d=" M 458 34 L 530.736328125 34 L 530.736328125 74 L 458 74 L 458 34 Z Z" stroke-miterlimit="10" stroke-dasharray=""/></g><g><g><path fill="none" stroke="none"/><text fill="#000000" stroke="none" font-family="Arial" font-size="13px" font-style="normal" font-weight="bold" text-decoration="undefined" x="612.8681640625" y="53.5" text-anchor="middle" dominant-baseline="central" transform="matrix(1 0 0 1 -118 -6)">Bouton</text></g></g><g><path fill="none" stroke="#000000" paint-order="fill stroke markers" d=" M 494.5 75 L 494.5 1544" stroke-miterlimit="10" stroke-dasharray="3"/></g><g><rect fill="#C0C0C0" stroke="none" x="175" y="47" width="87.1962890625" height="40" transform="matrix(1 0 0 1 -118 -6)" fill-opacity="0.2"/></g><g><rect fill="#ffffff" stroke="none" x="168" y="40" width="87.1962890625" height="40" transform="matrix(1 0 0 1 -118 -6)"/></g><g><path fill="none" stroke="#000000" paint-order="fill stroke markers" d=" M 50 34 L 137.1962890625 34 L 137.1962890625 74 L 50 74 L 50 34 Z Z" stroke-miterlimit="10" stroke-dasharray=""/></g><g><g><path fill="none" stroke="none"/><text fill="#000000" stroke="none" font-family="Arial" font-size="13px" font-style="normal" font-weight="bold" text-decoration="undefined" x="212.09814453125" y="53.5" text-anchor="middle" dominant-baseline="central" transform="matrix(1 0 0 1 -118 -6)">Détecteurs</text></g></g><g><path fill="none" stroke="#000000" paint-order="fill stroke markers" d=" M 94.5 75 L 94.5 1544" stroke-miterlimit="10" stroke-dasharray="3"/></g><g><rect fill="#C0C0C0" stroke="none" x="367" y="47" width="96" height="40" transform="matrix(1 0 0 1 -118 -6)" fill-opacity="0.2"/></g><g><rect fill="#ffffff" stroke="none" x="360" y="40" width="96" height="40" transform="matrix(1 0 0 1 -118 -6)"/></g><g><path fill="none" stroke="#000000" paint-order="fill stroke markers" d=" M 242 34 L 338 34 L 338 74 L 242 74 L 242 34 Z Z" stroke-miterlimit="10" stroke-dasharray=""/></g><g><g><path fill="none" stroke="none"/><text fill="#000000" stroke="none" font-family="Arial" font-size="13px" font-style="normal" font-weight="bold" text-decoration="undefined" x="408.5" y="53.5" text-anchor="middle" dominant-baseline="central" transform="matrix(1 0 0 1 -118 -6)">Analyse</text></g></g><g><path fill="none" stroke="#000000" paint-order="fill stroke markers" d=" M 290.5 75 L 290.5 1538" stroke-miterlimit="10" stroke-dasharray="3"/></g><g><rect fill="#C0C0C0" stroke="none" x="791" y="47" width="72.736328125" height="40" transform="matrix(1 0 0 1 -118 -6)" fill-opacity="0.2"/></g><g><rect fill="#ffffff" stroke="none" x="784" y="40" width="72.736328125" height="40" transform="matrix(1 0 0 1 -118 -6)"/></g><g><path fill="none" stroke="#000000" paint-order="fill stroke markers" d=" M 666 34 L 738.736328125 34 L 738.736328125 74 L 666 74 L 666 34 Z Z" stroke-miterlimit="10" stroke-dasharray=""/></g><g><g><path fill="none" stroke="none"/><text fill="#000000" stroke="none" font-family="Arial" font-size="13px" font-style="normal" font-weight="bold" text-decoration="undefined" x="820.8681640625" y="53.5" text-anchor="middle" dominant-baseline="central" transform="matrix(1 0 0 1 -118 -6)">Alarme</text></g></g><g><path fill="none" stroke="#000000" paint-order="fill stroke markers" d=" M 702.5 75 L 702.5 1538" stroke-miterlimit="10" stroke-dasharray="3"/></g><g><rect fill="#C0C0C0" stroke="none" x="983" y="47" width="95.84814453125" height="40" transform="matrix(1 0 0 1 -118 -6)" fill-opacity="0.2"/></g><g><rect fill="#ffffff" stroke="none" x="976" y="40" width="95.84814453125" height="40" transform="matrix(1 0 0 1 -118 -6)"/></g><g><path fill="none" stroke="#000000" paint-order="fill stroke markers" d=" M 858 34 L 953.84814453125 34 L 953.84814453125 74 L 858 74 L 858 34 Z Z" stroke-miterlimit="10" stroke-dasharray=""/></g><g><g><path fill="none" stroke="none"/><text fill="#000000" stroke="none" font-family="Arial" font-size="13px" font-style="normal" font-weight="bold" text-decoration="undefined" x="1024.424072265625" y="53.5" text-anchor="middle" dominant-baseline="central" transform="matrix(1 0 0 1 -118 -6)">Localisation</text></g></g><g><path fill="none" stroke="#000000" paint-order="fill stroke markers" d=" M 906.5 75 L 906.5 1530" stroke-miterlimit="10" stroke-dasharray="3"/></g><g><rect fill="#C0C0C0" stroke="none" x="1223" y="47" width="72.736328125" height="40" transform="matrix(1 0 0 1 -118 -6)" fill-opacity="0.2"/></g><g><rect fill="#ffffff" stroke="none" x="1216" y="40" width="72.736328125" height="40" transform="matrix(1 0 0 1 -118 -6)"/></g><g><path fill="none" stroke="#000000" paint-order="fill stroke markers" d=" M 1098 34 L 1170.736328125 34 L 1170.736328125 74 L 1098 74 L 1098 34 Z Z" stroke-miterlimit="10" stroke-dasharray=""/></g><g><g><path fill="none" stroke="none"/><text fill="#000000" stroke="none" font-family="Arial" font-size="13px" font-style="normal" font-weight="bold" text-decoration="undefined" x="1252.8681640625" y="53.5" text-anchor="middle" dominant-baseline="central" transform="matrix(1 0 0 1 -118 -6)">Serveur</text></g></g><g><path fill="none" stroke="#000000" paint-order="fill stroke markers" d=" M 1134.5 75 L 1134.5 1530" stroke-miterlimit="10" stroke-dasharray="3"/></g><g><rect fill="#C0C0C0" stroke="none" x="1439" y="47" width="72.736328125" height="40" transform="matrix(1 0 0 1 -118 -6)" fill-opacity="0.2"/></g><g><rect fill="#ffffff" stroke="none" x="1432" y="40" width="72.736328125" height="40" transform="matrix(1 0 0 1 -118 -6)"/></g><g><path fill="none" stroke="#000000" paint-order="fill stroke markers" d=" M 1314 34 L 1386.736328125 34 L 1386.736328125 74 L 1314 74 L 1314 34 Z Z" stroke-miterlimit="10" stroke-dasharray=""/></g><g><g><path fill="none" stroke="none"/><text fill="#000000" stroke="none" font-family="Arial" font-size="13px" font-style="normal" font-weight="bold" text-decoration="undefined" x="1468.8681640625" y="53.5" text-anchor="middle" dominant-baseline="central" transform="matrix(1 0 0 1 -118 -6)">Secours</text></g></g><g><path fill="none" stroke="#000000" paint-order="fill stroke markers" d=" M 1350.5 75 L 1350.5 1530" stroke-miterlimit="10" stroke-dasharray="3"/></g><g><rect fill="#C0C0C0" stroke="none" x="1655" y="47" width="79.24267578125" height="40" transform="matrix(1 0 0 1 -118 -6)" fill-opacity="0.2"/></g><g><rect fill="#ffffff" stroke="none" x="1648" y="40" width="79.24267578125" height="40" transform="matrix(1 0 0 1 -118 -6)"/></g><g><path fill="none" stroke="#000000" paint-order="fill stroke markers" d=" M 1530 34 L 1609.24267578125 34 L 1609.24267578125 74 L 1530 74 L 1530 34 Z Z" stroke-miterlimit="10" stroke-dasharray=""/></g><g><g><path fill="none" stroke="none"/><text fill="#000000" stroke="none" font-family="Arial" font-size="13px" font-style="normal" font-weight="bold" text-decoration="undefined" x="1688.121337890625" y="53.5" text-anchor="middle" dominant-baseline="central" transform="matrix(1 0 0 1 -118 -6)">Proximité</text></g></g><g><path fill="none" stroke="#000000" paint-order="fill stroke markers" d=" M 1570.5 75 L 1570.5 1522" stroke-miterlimit="10" stroke-dasharray="3"/></g><g><g><path fill="none" stroke="none"/><text fill="#000000" stroke="none" font-family="Arial" font-size="13px" font-style="normal" font-weight="normal" text-decoration="undefined" x="672" y="425" text-anchor="start" dominant-baseline="text-before-edge" transform="matrix(1 0 0 1 -118 -6)">Text</text></g></g><g><rect fill="#ffffff" stroke="none" x="304" y="312" width="72.13720703125" height="64" transform="matrix(1 0 0 1 -118 -6)"/></g><g><path fill="none" stroke="#000000" paint-order="fill stroke markers" d=" M 186 306 L 258.13720703125 306 L 258.13720703125 370 L 186 370 L 186 306 Z Z" stroke-miterlimit="10" stroke-dasharray=""/></g><g><g><path fill="none" stroke="none"/><text fill="#000000" stroke="none" font-family="Arial" font-size="13px" font-style="normal" font-weight="normal" text-decoration="undefined" x="309" y="317" text-anchor="start" dominant-baseline="text-before-edge" transform="matrix(1 0 0 1 -118 -6)">Algorithme</text><text fill="#000000" stroke="none" font-family="Arial" font-size="13px" font-style="normal" font-weight="normal" text-decoration="undefined" x="309" y="330" text-anchor="start" dominant-baseline="text-before-edge" transform="matrix(1 0 0 1 -118 -6)">de</text><text fill="#000000" stroke="none" font-family="Arial" font-size="13px" font-style="normal" font-weight="normal" text-decoration="undefined" x="309" y="343" text-anchor="start" dominant-baseline="text-before-edge" transform="matrix(1 0 0 1 -118 -6)">machine</text><text fill="#000000" stroke="none" font-family="Arial" font-size="13px" font-style="normal" font-weight="normal" text-decoration="undefined" x="309" y="356" text-anchor="start" dominant-baseline="text-before-edge" transform="matrix(1 0 0 1 -118 -6)">learning</text></g></g><g><rect fill="#C0C0C0" stroke="none" x="1815" y="47" width="162.32080078125" height="40" transform="matrix(1 0 0 1 -118 -6)" fill-opacity="0.2"/></g><g><rect fill="#ffffff" stroke="none" x="1808" y="40" width="162.32080078125" height="40" transform="matrix(1 0 0 1 -118 -6)"/></g><g><path fill="none" stroke="#000000" paint-order="fill stroke markers" d=" M 1690 34 L 1852.32080078125 34 L 1852.32080078125 74 L 1690 74 L 1690 34 Z Z" stroke-miterlimit="10" stroke-dasharray=""/></g><g><g><path fill="none" stroke="none"/><text fill="#000000" stroke="none" font-family="Arial" font-size="13px" font-style="normal" font-weight="bold" text-decoration="undefined" x="1889.660400390625" y="53.5" text-anchor="middle" dominant-baseline="central" transform="matrix(1 0 0 1 -118 -6)">Personne de confiance</text></g></g><g><path fill="none" stroke="#000000" paint-order="fill stroke markers" d=" M 1771.5 75 L 1771.5 1522" stroke-miterlimit="10" stroke-dasharray="3"/></g><g><path fill="none" stroke="#000000" paint-order="fill stroke markers" d=" M 494 202 L 101 202" stroke-miterlimit="10" stroke-dasharray=""/></g><g><path fill="#000000" stroke="none" paint-order="stroke fill markers" d=" M 111.16267485762415 197.790482243984 L 101 202 L 111.16267485762415 206.209517756016"/></g><g><path fill="none" stroke="#000000" paint-order="fill stroke markers" d=" M 111.16267485762415 197.790482243984 L 101 202 L 111.16267485762415 206.209517756016 L 111.16267485762415 197.790482243984" stroke-miterlimit="10" stroke-dasharray=""/></g><g><rect fill="#ffffff" stroke="none" x="372" y="212" width="85.2744140625" height="13" transform="matrix(1 0 0 1 -118 -6)"/></g><g><g><path fill="none" stroke="none"/><text fill="#000000" stroke="none" font-family="Arial" font-size="13px" font-style="normal" font-weight="normal" text-decoration="undefined" x="414.63720703125" y="218.5" text-anchor="middle" dominant-baseline="central" transform="matrix(1 0 0 1 -118 -6)">1 : Démarrage</text></g></g><g><rect fill="#ffffff" stroke="none" x="205" y="208" width="14" height="28" transform="matrix(1 0 0 1 -118 -6)"/></g><g><path fill="none" stroke="#000000" paint-order="fill stroke markers" d=" M 87 202 L 101 202 L 101 230 L 87 230 L 87 202 Z Z" stroke-miterlimit="10" stroke-dasharray=""/></g><g><path fill="none" stroke="#000000" paint-order="fill stroke markers" d=" M 95 282 L 283 282" stroke-miterlimit="10" stroke-dasharray=""/></g><g><path fill="#000000" stroke="none" paint-order="stroke fill markers" d=" M 272.83732514237585 286.209517756016 L 283 282 L 272.83732514237585 277.790482243984"/></g><g><path fill="none" stroke="#000000" paint-order="fill stroke markers" d=" M 272.83732514237585 286.209517756016 L 283 282 L 272.83732514237585 277.790482243984 L 272.83732514237585 286.209517756016" stroke-miterlimit="10" stroke-dasharray=""/></g><g><rect fill="#ffffff" stroke="none" x="185" y="271" width="233.42236328125" height="13" transform="matrix(1 0 0 1 -118 -6)"/></g><g><g><path fill="none" stroke="none"/><text fill="#000000" stroke="none" font-family="Arial" font-size="13px" font-style="normal" font-weight="normal" text-decoration="undefined" x="301.711181640625" y="277.5" text-anchor="middle" dominant-baseline="central" transform="matrix(1 0 0 1 -118 -6)">2 : transmission périodique des données</text></g></g><g><rect fill="#ffffff" stroke="none" x="401" y="288" width="14" height="28" transform="matrix(1 0 0 1 -118 -6)"/></g><g><path fill="none" stroke="#000000" paint-order="fill stroke markers" d=" M 283 282 L 297 282 L 297 310 L 283 310 L 283 282 Z Z" stroke-miterlimit="10" stroke-dasharray=""/></g><g><path fill="none" stroke="#000000" paint-order="fill stroke markers" d=" M 907 338 L 937 338 L 937 358 L 913 358" stroke-miterlimit="10" stroke-dasharray=""/></g><g><path fill="#000000" stroke="none" paint-order="stroke fill markers" d=" M 923.1626748576241 353.790482243984 L 913 358 L 923.1626748576241 362.209517756016"/></g><g><path fill="none" stroke="#000000" paint-order="fill stroke markers" d=" M 923.1626748576241 353.790482243984 L 913 358 L 923.1626748576241 362.209517756016 L 923.1626748576241 353.790482243984" stroke-miterlimit="10" stroke-dasharray=""/></g><g><rect fill="#ffffff" stroke="none" x="932" y="312" width="265.19873046875" height="13" transform="matrix(1 0 0 1 -118 -6)"/></g><g><g><path fill="none" stroke="none"/><text fill="#000000" stroke="none" font-family="Arial" font-size="13px" font-style="normal" font-weight="normal" text-decoration="undefined" x="1064.599365234375" y="318.5" text-anchor="middle" dominant-baseline="central" transform="matrix(1 0 0 1 -118 -6)">3 : enregistre localisation touts les y secondes</text></g></g><g><rect fill="#ffffff" stroke="none" x="1017" y="364" width="14" height="28" transform="matrix(1 0 0 1 -118 -6)"/></g><g><path fill="none" stroke="#000000" paint-order="fill stroke markers" d=" M 899 358 L 913 358 L 913 386 L 899 386 L 899 358 Z Z" stroke-miterlimit="10" stroke-dasharray=""/></g><g><path fill="none" stroke="#000000" paint-order="fill stroke markers" d=" M 291 346 L 321 346 L 321 366 L 297 366" stroke-miterlimit="10" stroke-dasharray=""/></g><g><path fill="#000000" stroke="none" paint-order="stroke fill markers" d=" M 307.16267485762415 361.790482243984 L 297 366 L 307.16267485762415 370.209517756016"/></g><g><path fill="none" stroke="#000000" paint-order="fill stroke markers" d=" M 307.16267485762415 361.790482243984 L 297 366 L 307.16267485762415 370.209517756016 L 307.16267485762415 361.790482243984" stroke-miterlimit="10" stroke-dasharray=""/></g><g><rect fill="#ffffff" stroke="none" x="372" y="355" width="153.9306640625" height="13" transform="matrix(1 0 0 1 -118 -6)"/></g><g><g><path fill="none" stroke="none"/><text fill="#000000" stroke="none" font-family="Arial" font-size="13px" font-style="normal" font-weight="normal" text-decoration="undefined" x="448.96533203125" y="361.5" text-anchor="middle" dominant-baseline="central" transform="matrix(1 0 0 1 -118 -6)">4 : traitement des données</text></g></g><g><rect fill="#ffffff" stroke="none" x="401" y="372" width="14" height="28" transform="matrix(1 0 0 1 -118 -6)"/></g><g><path fill="none" stroke="#000000" paint-order="fill stroke markers" d=" M 283 366 L 297 366 L 297 394 L 283 394 L 283 366 Z Z" stroke-miterlimit="10" stroke-dasharray=""/></g><g><path fill="none" stroke="#000000" paint-order="fill stroke markers" d=" M 291 434 L 695 434" stroke-miterlimit="10" stroke-dasharray=""/></g><g><path fill="#000000" stroke="none" paint-order="stroke fill markers" d=" M 684.8373251423759 438.209517756016 L 695 434 L 684.8373251423758 429.790482243984"/></g><g><path fill="none" stroke="#000000" paint-order="fill stroke markers" d=" M 684.8373251423759 438.209517756016 L 695 434 L 684.8373251423758 429.790482243984 L 684.8373251423759 438.209517756016" stroke-miterlimit="10" stroke-dasharray=""/></g><g><rect fill="#ffffff" stroke="none" x="485" y="424" width="253.64599609375" height="13" transform="matrix(1 0 0 1 -118 -6)"/></g><g><g><path fill="none" stroke="none"/><text fill="#000000" stroke="none" font-family="Arial" font-size="13px" font-style="normal" font-weight="normal" text-decoration="undefined" x="611.822998046875" y="430.5" text-anchor="middle" dominant-baseline="central" transform="matrix(1 0 0 1 -118 -6)">5 : déclenchement alarme information</text></g></g><g><rect fill="#ffffff" stroke="none" x="813" y="440" width="14" height="28" transform="matrix(1 0 0 1 -118 -6)"/></g><g><path fill="none" stroke="#000000" paint-order="fill stroke markers" d=" M 695 434 L 709 434 L 709 462 L 695 462 L 695 434 Z Z" stroke-miterlimit="10" stroke-dasharray=""/></g><g><path fill="none" stroke="#000000" paint-order="fill stroke markers" d=" M 494 498 L 297 498" stroke-miterlimit="10" stroke-dasharray=""/></g><g><path fill="#000000" stroke="none" paint-order="stroke fill markers" d=" M 307.16267485762415 493.790482243984 L 297 498 L 307.16267485762415 502.209517756016"/></g><g><path fill="none" stroke="#000000" paint-order="fill stroke markers" d=" M 307.16267485762415 493.790482243984 L 297 498 L 307.16267485762415 502.209517756016 L 307.16267485762415 493.790482243984" stroke-miterlimit="10" stroke-dasharray=""/></g><g><rect fill="#ffffff" stroke="none" x="407" y="508" width="211.7578125" height="13" transform="matrix(1 0 0 1 -118 -6)"/></g><g><g><path fill="none" stroke="none"/><text fill="#000000" stroke="none" font-family="Arial" font-size="13px" font-style="normal" font-weight="normal" text-decoration="undefined" x="512.87890625" y="514.5" text-anchor="middle" dominant-baseline="central" transform="matrix(1 0 0 1 -118 -6)">6 : Chute annulée</text></g></g><g><rect fill="#ffffff" stroke="none" x="401" y="504" width="14" height="28" transform="matrix(1 0 0 1 -118 -6)"/></g><g><path fill="none" stroke="#000000" paint-order="fill stroke markers" d=" M 283 498 L 297 498 L 297 526 L 283 526 L 283 498 Z Z" stroke-miterlimit="10" stroke-dasharray=""/></g><g><path fill="none" stroke="#000000" paint-order="fill stroke markers" d=" M 291 546 L 695 546" stroke-miterlimit="10" stroke-dasharray=""/></g><g><path fill="#000000" stroke="none" paint-order="stroke fill markers" d=" M 684.8373251423759 550.209517756016 L 695 546 L 684.8373251423758 541.790482243984"/></g><g><path fill="none" stroke="#000000" paint-order="fill stroke markers" d=" M 684.8373251423759 550.209517756016 L 695 546 L 684.8373251423758 541.790482243984 L 684.8373251423759 550.209517756016" stroke-miterlimit="10" stroke-dasharray=""/></g><g><rect fill="#ffffff" stroke="none" x="567" y="536" width="88.15625" height="13" transform="matrix(1 0 0 1 -118 -6)"/></g><g><g><path fill="none" stroke="none"/><text fill="#000000" stroke="none" font-family="Arial" font-size="13px" font-style="normal" font-weight="normal" text-decoration="undefined" x="611.078125" y="542.5" text-anchor="middle" dominant-baseline="central" transform="matrix(1 0 0 1 -118 -6)">7 : Stop alarme</text></g></g><g><rect fill="#ffffff" stroke="none" x="813" y="552" width="14" height="28" transform="matrix(1 0 0 1 -118 -6)"/></g><g><path fill="none" stroke="#000000" paint-order="fill stroke markers" d=" M 695 546 L 709 546 L 709 574 L 695 574 L 695 546 Z Z" stroke-miterlimit="10" stroke-dasharray=""/></g><g><path fill="none" stroke="#000000" paint-order="fill stroke markers" d=" M 495 674 L 695 674" stroke-miterlimit="10" stroke-dasharray=""/></g><g><path fill="#000000" stroke="none" paint-order="stroke fill markers" d=" M 684.8373251423759 678.209517756016 L 695 674 L 684.8373251423758 669.790482243984"/></g><g><path fill="none" stroke="#000000" paint-order="fill stroke markers" d=" M 684.8373251423759 678.209517756016 L 695 674 L 684.8373251423758 669.790482243984 L 684.8373251423759 678.209517756016" stroke-miterlimit="10" stroke-dasharray=""/></g><g><rect fill="#ffffff" stroke="none" x="632" y="696" width="154.6416015625" height="13" transform="matrix(1 0 0 1 -118 -6)"/></g><g><g><path fill="none" stroke="none"/><text fill="#000000" stroke="none" font-family="Arial" font-size="13px" font-style="normal" font-weight="normal" text-decoration="undefined" x="709.32080078125" y="702.5" text-anchor="middle" dominant-baseline="central" transform="matrix(1 0 0 1 -118 -6)">8 : Déclenchement manuel</text></g></g><g><rect fill="#ffffff" stroke="none" x="813" y="680" width="14" height="28" transform="matrix(1 0 0 1 -118 -6)"/></g><g><path fill="none" stroke="#000000" paint-order="fill stroke markers" d=" M 695 674 L 709 674 L 709 702 L 695 702 L 695 674 Z Z" stroke-miterlimit="10" stroke-dasharray=""/></g><g><path fill="none" stroke="#000000" paint-order="fill stroke markers" d=" M 291 778 L 899 778" stroke-miterlimit="10" stroke-dasharray=""/></g><g><path fill="#000000" stroke="none" paint-order="stroke fill markers" d=" M 888.8373251423759 782.209517756016 L 899 778 L 888.8373251423758 773.790482243984"/></g><g><path fill="none" stroke="#000000" paint-order="fill stroke markers" d=" M 888.8373251423759 782.209517756016 L 899 778 L 888.8373251423758 773.790482243984 L 888.8373251423759 782.209517756016" stroke-miterlimit="10" stroke-dasharray=""/></g><g><rect fill="#ffffff" stroke="none" x="656" y="768" width="114.181640625" height="13" transform="matrix(1 0 0 1 -118 -6)"/></g><g><g><path fill="none" stroke="none"/><text fill="#000000" stroke="none" font-family="Arial" font-size="13px" font-style="normal" font-weight="normal" text-decoration="undefined" x="713.0908203125" y="774.5" text-anchor="middle" dominant-baseline="central" transform="matrix(1 0 0 1 -118 -6)">9 : Géolocalisation</text></g></g><g><rect fill="#ffffff" stroke="none" x="1017" y="784" width="14" height="28" transform="matrix(1 0 0 1 -118 -6)"/></g><g><path fill="none" stroke="#000000" paint-order="fill stroke markers" d=" M 899 778 L 913 778 L 913 806 L 899 806 L 899 778 Z Z" stroke-miterlimit="10" stroke-dasharray=""/></g><g><path fill="none" stroke="#000000" paint-order="fill stroke markers" d=" M 906 866 L 291 866" stroke-miterlimit="10" stroke-dasharray="3"/></g><g><path fill="none" stroke="#000000" paint-order="fill stroke markers" d=" M 301.16267485762415 861.790482243984 L 291 866 L 301.16267485762415 870.209517756016" stroke-miterlimit="10" stroke-dasharray=""/></g><g><rect fill="#ffffff" stroke="none" x="619" y="876" width="192.94970703125" height="13" transform="matrix(1 0 0 1 -118 -6)"/></g><g><g><path fill="none" stroke="none"/><text fill="#000000" stroke="none" font-family="Arial" font-size="13px" font-style="normal" font-weight="normal" text-decoration="undefined" x="715.474853515625" y="882.5" text-anchor="middle" dominant-baseline="central" transform="matrix(1 0 0 1 -118 -6)">10 : retourne dernière localisation</text></g></g><g><path fill="none" stroke="#000000" paint-order="fill stroke markers" d=" M 906 954 L 291 954" stroke-miterlimit="10" stroke-dasharray="3"/></g><g><path fill="none" stroke="#000000" paint-order="fill stroke markers" d=" M 301.16267485762415 949.790482243984 L 291 954 L 301.16267485762415 958.209517756016" stroke-miterlimit="10" stroke-dasharray=""/></g><g><rect fill="#ffffff" stroke="none" x="606" y="964" width="219.705078125" height="13" transform="matrix(1 0 0 1 -118 -6)"/></g><g><g><path fill="none" stroke="none"/><text fill="#000000" stroke="none" font-family="Arial" font-size="13px" font-style="normal" font-weight="normal" text-decoration="undefined" x="715.8525390625" y="970.5" text-anchor="middle" dominant-baseline="central" transform="matrix(1 0 0 1 -118 -6)">11 : retourne localisation instantannée</text></g></g><g><path fill="none" stroke="#000000" paint-order="fill stroke markers" d=" M 291 1018 L 1127 1018" stroke-miterlimit="10" stroke-dasharray=""/></g><g><path fill="#000000" stroke="none" paint-order="stroke fill markers" d=" M 1116.837325142376 1022.2095177560159 L 1127 1018 L 1116.837325142376 1013.790482243984"/></g><g><path fill="none" stroke="#000000" paint-order="fill stroke markers" d=" M 1116.837325142376 1022.2095177560159 L 1127 1018 L 1116.837325142376 1013.790482243984 L 1116.837325142376 1022.2095177560159" stroke-miterlimit="10" stroke-dasharray=""/></g><g><rect fill="#ffffff" stroke="none" x="714" y="1008" width="226.17333984375" height="13" transform="matrix(1 0 0 1 -118 -6)"/></g><g><g><path fill="none" stroke="none"/><text fill="#000000" stroke="none" font-family="Arial" font-size="13px" font-style="normal" font-weight="normal" text-decoration="undefined" x="827.086669921875" y="1014.5" text-anchor="middle" dominant-baseline="central" transform="matrix(1 0 0 1 -118 -6)">12 : transmet données gps et id victime</text></g></g><g><rect fill="#ffffff" stroke="none" x="1245" y="1024" width="14" height="28" transform="matrix(1 0 0 1 -118 -6)"/></g><g><path fill="none" stroke="#000000" paint-order="fill stroke markers" d=" M 1127 1018 L 1141 1018 L 1141 1046 L 1127 1046 L 1127 1018 Z Z" stroke-miterlimit="10" stroke-dasharray=""/></g><g><path fill="none" stroke="#000000" paint-order="fill stroke markers" d=" M 1135 1058 L 1343 1058" stroke-miterlimit="10" stroke-dasharray=""/></g><g><path fill="#000000" stroke="none" paint-order="stroke fill markers" d=" M 1332.837325142376 1062.2095177560159 L 1343 1058 L 1332.837325142376 1053.7904822439841"/></g><g><path fill="none" stroke="#000000" paint-order="fill stroke markers" d=" M 1332.837325142376 1062.2095177560159 L 1343 1058 L 1332.837325142376 1053.7904822439841 L 1332.837325142376 1062.2095177560159" stroke-miterlimit="10" stroke-dasharray=""/></g><g><rect fill="#ffffff" stroke="none" x="1291" y="1040" width="132.2470703125" height="13" transform="matrix(1 0 0 1 -118 -6)"/></g><g><g><path fill="none" stroke="none"/><text fill="#000000" stroke="none" font-family="Arial" font-size="13px" font-style="normal" font-weight="normal" text-decoration="undefined" x="1357.12353515625" y="1046.5" text-anchor="middle" dominant-baseline="central" transform="matrix(1 0 0 1 -118 -6)">13 : Appel aux secours</text></g></g><g><rect fill="#ffffff" stroke="none" x="1461" y="1064" width="14" height="28" transform="matrix(1 0 0 1 -118 -6)"/></g><g><path fill="none" stroke="#000000" paint-order="fill stroke markers" d=" M 1343 1058 L 1357 1058 L 1357 1086 L 1343 1086 L 1343 1058 Z Z" stroke-miterlimit="10" stroke-dasharray=""/></g><g><path fill="none" stroke="#000000" paint-order="fill stroke markers" d=" M 291 1114 L 1764 1114" stroke-miterlimit="10" stroke-dasharray=""/></g><g><path fill="#000000" stroke="none" paint-order="stroke fill markers" d=" M 1753.837325142376 1118.2095177560159 L 1764 1114 L 1753.837325142376 1109.7904822439841"/></g><g><path fill="none" stroke="#000000" paint-order="fill stroke markers" d=" M 1753.837325142376 1118.2095177560159 L 1764 1114 L 1753.837325142376 1109.7904822439841 L 1753.837325142376 1118.2095177560159" stroke-miterlimit="10" stroke-dasharray=""/></g><g><rect fill="#ffffff" stroke="none" x="998" y="1104" width="295.56591796875" height="13" transform="matrix(1 0 0 1 -118 -6)"/></g><g><g><path fill="none" stroke="none"/><text fill="#000000" stroke="none" font-family="Arial" font-size="13px" font-style="normal" font-weight="normal" text-decoration="undefined" x="1145.782958984375" y="1110.5" text-anchor="middle" dominant-baseline="central" transform="matrix(1 0 0 1 -118 -6)">14 : Notification aux personnes proches rensignées</text></g></g><g><rect fill="#ffffff" stroke="none" x="1882" y="1120" width="14" height="28" transform="matrix(1 0 0 1 -118 -6)"/></g><g><path fill="none" stroke="#000000" paint-order="fill stroke markers" d=" M 1764 1114 L 1778 1114 L 1778 1142 L 1764 1142 L 1764 1114 Z Z" stroke-miterlimit="10" stroke-dasharray=""/></g><g><path fill="none" stroke="#000000" paint-order="fill stroke markers" d=" M 291 1178 L 1563 1178" stroke-miterlimit="10" stroke-dasharray=""/></g><g><path fill="#000000" stroke="none" paint-order="stroke fill markers" d=" M 1552.837325142376 1182.2095177560159 L 1563 1178 L 1552.837325142376 1173.7904822439841"/></g><g><path fill="none" stroke="#000000" paint-order="fill stroke markers" d=" M 1552.837325142376 1182.2095177560159 L 1563 1178 L 1552.837325142376 1173.7904822439841 L 1552.837325142376 1182.2095177560159" stroke-miterlimit="10" stroke-dasharray=""/></g><g><rect fill="#ffffff" stroke="none" x="845" y="1167" width="391.68212890625" height="13" transform="matrix(1 0 0 1 -118 -6)"/></g><g><g><path fill="none" stroke="none"/><text fill="#000000" stroke="none" font-family="Arial" font-size="13px" font-style="normal" font-weight="normal" text-decoration="undefined" x="1040.841064453125" y="1173.5" text-anchor="middle" dominant-baseline="central" transform="matrix(1 0 0 1 -118 -6)">15 : Notification aux personnes aux alentours</text></g></g><g><rect fill="#ffffff" stroke="none" x="1681" y="1184" width="14" height="28" transform="matrix(1 0 0 1 -118 -6)"/></g><g><path fill="none" stroke="#000000" paint-order="fill stroke markers" d=" M 1563 1178 L 1577 1178 L 1577 1206 L 1563 1206 L 1563 1178 Z Z" stroke-miterlimit="10" stroke-dasharray=""/></g><g><path fill="none" stroke="#000000" paint-order="fill stroke markers" d=" M 291 1242 L 695 1242" stroke-miterlimit="10" stroke-dasharray=""/></g><g><path fill="#000000" stroke="none" paint-order="stroke fill markers" d=" M 684.8373251423759 1246.2095177560159 L 695 1242 L 684.8373251423758 1237.7904822439841"/></g><g><path fill="none" stroke="#000000" paint-order="fill stroke markers" d=" M 684.8373251423759 1246.2095177560159 L 695 1242 L 684.8373251423758 1237.7904822439841 L 684.8373251423759 1246.2095177560159" stroke-miterlimit="10" stroke-dasharray=""/></g><g><rect fill="#ffffff" stroke="none" x="441" y="1232" width="340.34228515625" height="13" transform="matrix(1 0 0 1 -118 -6)"/></g><g><g><path fill="none" stroke="none"/><text fill="#000000" stroke="none" font-family="Arial" font-size="13px" font-style="normal" font-weight="normal" text-decoration="undefined" x="611.171142578125" y="1238.5" text-anchor="middle" dominant-baseline="central" transform="matrix(1 0 0 1 -118 -6)">16 : Déclenchement alarme pour les personnes à proximité</text></g></g><g><rect fill="#ffffff" stroke="none" x="813" y="1248" width="14" height="28" transform="matrix(1 0 0 1 -118 -6)"/></g><g><path fill="none" stroke="#000000" paint-order="fill stroke markers" d=" M 695 1242 L 709 1242 L 709 1270 L 695 1270 L 695 1242 Z Z" stroke-miterlimit="10" stroke-dasharray=""/></g><g><path fill="none" stroke="#000000" paint-order="fill stroke markers" d=" M 291 1322 L 695 1322" stroke-miterlimit="10" stroke-dasharray=""/></g><g><path fill="#000000" stroke="none" paint-order="stroke fill markers" d=" M 684.8373251423759 1326.2095177560159 L 695 1322 L 684.8373251423758 1317.7904822439841"/></g><g><path fill="none" stroke="#000000" paint-order="fill stroke markers" d=" M 684.8373251423759 1326.2095177560159 L 695 1322 L 684.8373251423758 1317.7904822439841 L 684.8373251423759 1326.2095177560159" stroke-miterlimit="10" stroke-dasharray=""/></g><g><rect fill="#ffffff" stroke="none" x="568" y="1312" width="86.70263671875" height="13" transform="matrix(1 0 0 1 -118 -6)"/></g><g><g><path fill="none" stroke="none"/><text fill="#000000" stroke="none" font-family="Arial" font-size="13px" font-style="normal" font-weight="normal" text-decoration="undefined" x="611.351318359375" y="1318.5" text-anchor="middle" dominant-baseline="central" transform="matrix(1 0 0 1 -118 -6)">17 : Fin alarme</text></g></g><g><rect fill="#ffffff" stroke="none" x="813" y="1328" width="14" height="28" transform="matrix(1 0 0 1 -118 -6)"/></g><g><path fill="none" stroke="#000000" paint-order="fill stroke markers" d=" M 695 1322 L 709 1322 L 709 1350 L 695 1350 L 695 1322 Z Z" stroke-miterlimit="10" stroke-dasharray=""/></g><g><path fill="none" stroke="#000000" paint-order="fill stroke markers" d=" M 494 1498 L 101 1498" stroke-miterlimit="10" stroke-dasharray=""/></g><g><path fill="#000000" stroke="none" paint-order="stroke fill markers" d=" M 111.16267485762415 1493.7904822439841 L 101 1498 L 111.16267485762415 1502.2095177560159"/></g><g><path fill="none" stroke="#000000" paint-order="fill stroke markers" d=" M 111.16267485762415 1493.7904822439841 L 101 1498 L 111.16267485762415 1502.2095177560159 L 111.16267485762415 1493.7904822439841" stroke-miterlimit="10" stroke-dasharray=""/></g><g><rect fill="#ffffff" stroke="none" x="372" y="1508" width="85.2744140625" height="13" transform="matrix(1 0 0 1 -118 -6)"/></g><g><g><path fill="none" stroke="none"/><text fill="#000000" stroke="none" font-family="Arial" font-size="13px" font-style="normal" font-weight="normal" text-decoration="undefined" x="414.63720703125" y="1514.5" text-anchor="middle" dominant-baseline="central" transform="matrix(1 0 0 1 -118 -6)">18 : Fin</text></g></g><g><rect fill="#ffffff" stroke="none" x="205" y="1504" width="14" height="28" transform="matrix(1 0 0 1 -118 -6)"/></g><g><path fill="none" stroke="#000000" paint-order="fill stroke markers" d=" M 87 1498 L 101 1498 L 101 1526 L 87 1526 L 87 1498 Z Z" stroke-miterlimit="10" stroke-dasharray=""/></g><g><path fill="none" stroke="#000000" paint-order="fill stroke markers" d=" M 250 450 L 746 450 L 746 626 L 250 626 L 250 450" stroke-miterlimit="10" stroke-dasharray=""/></g><g><path fill="#ffffff" stroke="none" paint-order="stroke fill markers" d=" M 250 450 L 250 473 L 367.9052734375 473 L 379.4052734375 461.5 L 379.4052734375 450 L 250 450"/></g><g><path fill="none" stroke="#000000" paint-order="fill stroke markers" d=" M 250 450 L 250 473 L 367.9052734375 473 L 379.4052734375 461.5 L 379.4052734375 450 L 250 450 L 250 450" stroke-miterlimit="10" stroke-dasharray=""/></g><g><g><path fill="none" stroke="none"/><text fill="#000000" stroke="none" font-family="Arial" font-size="13px" font-style="normal" font-weight="normal" text-decoration="undefined" x="438.988525390625" y="467.5" text-anchor="middle" dominant-baseline="central" transform="matrix(1 0 0 1 -118 -6)">Bouton pressé</text></g></g><g><g><path fill="none" stroke="none"/><text fill="#000000" stroke="none" font-family="Arial" font-size="13px" font-style="normal" font-weight="bold" text-decoration="undefined" x="382.035888671875" y="467.5" text-anchor="middle" dominant-baseline="central" transform="matrix(1 0 0 1 -118 -6)">opt</text></g></g><g><path fill="none" stroke="#000000" paint-order="fill stroke markers" d=" M 474 642 L 746 642 L 746 730 L 474 730 L 474 642" stroke-miterlimit="10" stroke-dasharray=""/></g><g><path fill="#ffffff" stroke="none" paint-order="stroke fill markers" d=" M 474 642 L 474 665 L 591.92431640625 665 L 603.42431640625 653.5 L 603.42431640625 642 L 474 642"/></g><g><path fill="none" stroke="#000000" paint-order="fill stroke markers" d=" M 474 642 L 474 665 L 591.92431640625 665 L 603.42431640625 653.5 L 603.42431640625 642 L 474 642 L 474 642" stroke-miterlimit="10" stroke-dasharray=""/></g><g><g><path fill="none" stroke="none"/><text fill="#000000" stroke="none" font-family="Arial" font-size="13px" font-style="normal" font-weight="normal" text-decoration="undefined" x="662.998046875" y="659.5" text-anchor="middle" dominant-baseline="central" transform="matrix(1 0 0 1 -118 -6)">Appuie bouton</text></g></g><g><g><path fill="none" stroke="none"/><text fill="#000000" stroke="none" font-family="Arial" font-size="13px" font-style="normal" font-weight="bold" text-decoration="undefined" x="606.035888671875" y="659.5" text-anchor="middle" dominant-baseline="central" transform="matrix(1 0 0 1 -118 -6)">opt</text></g></g><g><path fill="none" stroke="#000000" paint-order="fill stroke markers" d=" M 170 402 L 1898 402 L 1898 1434 L 170 1434 L 170 402" stroke-miterlimit="10" stroke-dasharray=""/></g><g><path fill="#ffffff" stroke="none" paint-order="stroke fill markers" d=" M 170 402 L 170 425 L 234.419921875 425 L 245.919921875 413.5 L 245.919921875 402 L 170 402"/></g><g><path fill="none" stroke="#000000" paint-order="fill stroke markers" d=" M 170 402 L 170 425 L 234.419921875 425 L 245.919921875 413.5 L 245.919921875 402 L 170 402 L 170 402" stroke-miterlimit="10" stroke-dasharray=""/></g><g><g><path fill="none" stroke="none"/><text fill="#000000" stroke="none" font-family="Arial" font-size="13px" font-style="normal" font-weight="normal" text-decoration="undefined" x="330.074951171875" y="419.5" text-anchor="middle" dominant-baseline="central" transform="matrix(1 0 0 1 -118 -6)">Chute</text></g></g><g><g><path fill="none" stroke="none"/><text fill="#000000" stroke="none" font-family="Arial" font-size="13px" font-style="normal" font-weight="bold" text-decoration="undefined" x="299.864990234375" y="419.5" text-anchor="middle" dominant-baseline="central" transform="matrix(1 0 0 1 -118 -6)">alt</text></g></g><g><path fill="none" stroke="#000000" paint-order="fill stroke markers" d=" M 258 818 L 962 818 L 962 906 L 258 906 L 258 818" stroke-miterlimit="10" stroke-dasharray=""/></g><g><path fill="#ffffff" stroke="none" paint-order="stroke fill markers" d=" M 258 818 L 258 841 L 469.837890625 841 L 481.337890625 829.5 L 481.337890625 818 L 258 818"/></g><g><path fill="none" stroke="#000000" paint-order="fill stroke markers" d=" M 258 818 L 258 841 L 469.837890625 841 L 481.337890625 829.5 L 481.337890625 818 L 258 818 L 258 818" stroke-miterlimit="10" stroke-dasharray=""/></g><g><g><path fill="none" stroke="none"/><text fill="#000000" stroke="none" font-family="Arial" font-size="13px" font-style="normal" font-weight="normal" text-decoration="undefined" x="491.783935546875" y="835.5" text-anchor="middle" dominant-baseline="central" transform="matrix(1 0 0 1 -118 -6)">Si pas de localisation à instant t</text></g></g><g><g><path fill="none" stroke="none"/><text fill="#000000" stroke="none" font-family="Arial" font-size="13px" font-style="normal" font-weight="bold" text-decoration="undefined" x="387.864990234375" y="835.5" text-anchor="middle" dominant-baseline="central" transform="matrix(1 0 0 1 -118 -6)">alt</text></g></g><g><path fill="none" stroke="#000000" paint-order="fill stroke markers" d=" M 218 746 L 1850 746 L 1850 1402 L 218 1402 L 218 746" stroke-miterlimit="10" stroke-dasharray=""/></g><g><path fill="#ffffff" stroke="none" paint-order="stroke fill markers" d=" M 218 746 L 218 769 L 343.10986328125 769 L 354.60986328125 757.5 L 354.60986328125 746 L 218 746"/></g><g><path fill="none" stroke="#000000" paint-order="fill stroke markers" d=" M 218 746 L 218 769 L 343.10986328125 769 L 354.60986328125 757.5 L 354.60986328125 746 L 218 746 L 218 746" stroke-miterlimit="10" stroke-dasharray=""/></g><g><g><path fill="none" stroke="none"/><text fill="#000000" stroke="none" font-family="Arial" font-size="13px" font-style="normal" font-weight="normal" text-decoration="undefined" x="408.419921875" y="763.5" text-anchor="middle" dominant-baseline="central" transform="matrix(1 0 0 1 -118 -6)">Chute confirmée</text></g></g><g><g><path fill="none" stroke="none"/><text fill="#000000" stroke="none" font-family="Arial" font-size="13px" font-style="normal" font-weight="bold" text-decoration="undefined" x="347.864990234375" y="763.5" text-anchor="middle" dominant-baseline="central" transform="matrix(1 0 0 1 -118 -6)">alt</text></g></g><g><path fill="none" stroke="#000000" paint-order="fill stroke markers" d=" M 242 1274 L 866 1274 L 866 1370 L 242 1370 L 242 1274" stroke-miterlimit="10" stroke-dasharray=""/></g><g><path fill="#ffffff" stroke="none" paint-order="stroke fill markers" d=" M 242 1274 L 242 1297 L 362.0380859375 1297 L 373.5380859375 1285.5 L 373.5380859375 1274 L 242 1274"/></g><g><path fill="none" stroke="#000000" paint-order="fill stroke markers" d=" M 242 1274 L 242 1297 L 362.0380859375 1297 L 373.5380859375 1285.5 L 373.5380859375 1274 L 242 1274 L 242 1274" stroke-miterlimit="10" stroke-dasharray=""/></g><g><g><path fill="none" stroke="none"/><text fill="#000000" stroke="none" font-family="Arial" font-size="13px" font-style="normal" font-weight="normal" text-decoration="undefined" x="429.884033203125" y="1291.5" text-anchor="middle" dominant-baseline="central" transform="matrix(1 0 0 1 -118 -6)">Arrivée secours</text></g></g><g><g><path fill="none" stroke="none"/><text fill="#000000" stroke="none" font-family="Arial" font-size="13px" font-style="normal" font-weight="bold" text-decoration="undefined" x="371.864990234375" y="1291.5" text-anchor="middle" dominant-baseline="central" transform="matrix(1 0 0 1 -118 -6)">alt</text></g></g><g><path fill="none" stroke="#000000" paint-order="fill stroke markers" d=" M 74 1458 L 562 1458 L 562 1530 L 74 1530 L 74 1458" stroke-miterlimit="10" stroke-dasharray=""/></g><g><path fill="#ffffff" stroke="none" paint-order="stroke fill markers" d=" M 74 1458 L 74 1481 L 201.2998046875 1481 L 212.7998046875 1469.5 L 212.7998046875 1458 L 74 1458"/></g><g><path fill="none" stroke="#000000" paint-order="fill stroke markers" d=" M 74 1458 L 74 1481 L 201.2998046875 1481 L 212.7998046875 1469.5 L 212.7998046875 1458 L 74 1458 L 74 1458" stroke-miterlimit="10" stroke-dasharray=""/></g><g><g><path fill="none" stroke="none"/><text fill="#000000" stroke="none" font-family="Arial" font-size="13px" font-style="normal" font-weight="normal" text-decoration="undefined" x="267.685791015625" y="1475.5" text-anchor="middle" dominant-baseline="central" transform="matrix(1 0 0 1 -118 -6)">Pression longue</text></g></g><g><g><path fill="none" stroke="none"/><text fill="#000000" stroke="none" font-family="Arial" font-size="13px" font-style="normal" font-weight="bold" text-decoration="undefined" x="206.035888671875" y="1475.5" text-anchor="middle" dominant-baseline="central" transform="matrix(1 0 0 1 -118 -6)">opt</text></g></g></g></svg>