<svg version="1.1" xmlns="http://www.w3.org/2000/svg" xmlns:xlink="http://www.w3.org/1999/xlink" width="1172" height="1308"><defs/><g><g><path fill="none" stroke="#000000" paint-order="fill stroke markers" d=" M 10 10 L 1162 10 L 1162 1298 L 10 1298 L 10 10" stroke-miterlimit="10" stroke-dasharray=""/></g><g><path fill="#ffffff" stroke="none" paint-order="stroke fill markers" d=" M 10 10 L 10 33 L 274.5615234375 33 L 286.0615234375 21.5 L 286.0615234375 10 L 10 10"/></g><g><path fill="none" stroke="#000000" paint-order="fill stroke markers" d=" M 10 10 L 10 33 L 274.5615234375 33 L 286.0615234375 21.5 L 286.0615234375 10 L 10 10 L 10 10" stroke-miterlimit="10" stroke-dasharray=""/></g><g><g><path fill="none" stroke="none"/><text fill="#000000" stroke="none" font-family="Arial" font-size="13px" font-style="normal" font-weight="normal" text-decoration="undefined" x="270.145751953125" y="11.5" text-anchor="middle" dominant-baseline="central" transform="matrix(1 0 0 1 -118 10)">Diagramme séquence traitement compte</text></g></g><g><g><path fill="none" stroke="none"/><text fill="#000000" stroke="none" font-family="Arial" font-size="13px" font-style="normal" font-weight="bold" text-decoration="undefined" x="139.864990234375" y="11.5" text-anchor="middle" dominant-baseline="central" transform="matrix(1 0 0 1 -118 10)">sd</text></g></g><g><rect fill="#C0C0C0" stroke="none" x="167" y="47" width="83.57177734375" height="40" transform="matrix(1 0 0 1 -118 10)" fill-opacity="0.2"/></g><g><rect fill="#ffffff" stroke="none" x="160" y="40" width="83.57177734375" height="40" transform="matrix(1 0 0 1 -118 10)"/></g><g><path fill="none" stroke="#000000" paint-order="fill stroke markers" d=" M 42 50 L 125.57177734375 50 L 125.57177734375 90 L 42 90 L 42 50 Z Z" stroke-miterlimit="10" stroke-dasharray=""/></g><g><g><path fill="none" stroke="none"/><text fill="#000000" stroke="none" font-family="Arial" font-size="13px" font-style="normal" font-weight="bold" text-decoration="undefined" x="202.285888671875" y="53.5" text-anchor="middle" dominant-baseline="central" transform="matrix(1 0 0 1 -118 10)">Utilisateur</text></g></g><g><path fill="none" stroke="#000000" paint-order="fill stroke markers" d=" M 84.5 91 L 84.5 1242" stroke-miterlimit="10" stroke-dasharray="3"/></g><g><rect fill="#C0C0C0" stroke="none" x="599" y="47" width="79.2236328125" height="40" transform="matrix(1 0 0 1 -118 10)" fill-opacity="0.2"/></g><g><rect fill="#ffffff" stroke="none" x="592" y="40" width="79.2236328125" height="40" transform="matrix(1 0 0 1 -118 10)"/></g><g><path fill="none" stroke="#000000" paint-order="fill stroke markers" d=" M 474 50 L 553.2236328125 50 L 553.2236328125 90 L 474 90 L 474 50 Z Z" stroke-miterlimit="10" stroke-dasharray=""/></g><g><g><path fill="none" stroke="none"/><text fill="#000000" stroke="none" font-family="Arial" font-size="13px" font-style="normal" font-weight="bold" text-decoration="undefined" x="632.11181640625" y="53.5" text-anchor="middle" dominant-baseline="central" transform="matrix(1 0 0 1 -118 10)">Dispositif</text></g></g><g><path fill="none" stroke="#000000" paint-order="fill stroke markers" d=" M 514.5 91 L 514.5 1242" stroke-miterlimit="10" stroke-dasharray="3"/></g><g><rect fill="#C0C0C0" stroke="none" x="991" y="47" width="90.7763671875" height="40" transform="matrix(1 0 0 1 -118 10)" fill-opacity="0.2"/></g><g><rect fill="#ffffff" stroke="none" x="984" y="40" width="90.7763671875" height="40" transform="matrix(1 0 0 1 -118 10)"/></g><g><path fill="none" stroke="#000000" paint-order="fill stroke markers" d=" M 866 50 L 956.7763671875 50 L 956.7763671875 90 L 866 90 L 866 50 Z Z" stroke-miterlimit="10" stroke-dasharray=""/></g><g><g><path fill="none" stroke="none"/><text fill="#000000" stroke="none" font-family="Arial" font-size="13px" font-style="normal" font-weight="bold" text-decoration="undefined" x="1029.88818359375" y="53.5" text-anchor="middle" dominant-baseline="central" transform="matrix(1 0 0 1 -118 10)">Serveur</text></g></g><g><path fill="none" stroke="#000000" paint-order="fill stroke markers" d=" M 911.5 91 L 911.5 1264" stroke-miterlimit="10" stroke-dasharray="3"/></g><g><g><path fill="none" stroke="none"/><text fill="#000000" stroke="none" font-family="Arial" font-size="13px" font-style="normal" font-weight="normal" text-decoration="undefined" x="541" y="693" text-anchor="start" dominant-baseline="text-before-edge" transform="matrix(1 0 0 1 -118 10)">Se référer à Diagramme de</text><text fill="#000000" stroke="none" font-family="Arial" font-size="13px" font-style="normal" font-weight="normal" text-decoration="undefined" x="541" y="706" text-anchor="start" dominant-baseline="text-before-edge" transform="matrix(1 0 0 1 -118 10)">séquence traitement principal</text></g></g><g><g><path fill="none" stroke="none"/><text fill="#000000" stroke="none" font-family="Arial" font-size="13px" font-style="normal" font-weight="normal" text-decoration="undefined" x="933" y="1157" text-anchor="start" dominant-baseline="text-before-edge" transform="matrix(1 0 0 1 -118 10)">Traitement</text><text fill="#000000" stroke="none" font-family="Arial" font-size="13px" font-style="normal" font-weight="normal" text-decoration="undefined" x="933" y="1170" text-anchor="start" dominant-baseline="text-before-edge" transform="matrix(1 0 0 1 -118 10)">des données :</text><text fill="#000000" stroke="none" font-family="Arial" font-size="13px" font-style="normal" font-weight="normal" text-decoration="undefined" x="933" y="1183" text-anchor="start" dominant-baseline="text-before-edge" transform="matrix(1 0 0 1 -118 10)">envoie</text><text fill="#000000" stroke="none" font-family="Arial" font-size="13px" font-style="normal" font-weight="normal" text-decoration="undefined" x="933" y="1196" text-anchor="start" dominant-baseline="text-before-edge" transform="matrix(1 0 0 1 -118 10)">parcours aux</text><text fill="#000000" stroke="none" font-family="Arial" font-size="13px" font-style="normal" font-weight="normal" text-decoration="undefined" x="933" y="1209" text-anchor="start" dominant-baseline="text-before-edge" transform="matrix(1 0 0 1 -118 10)">associations,</text><text fill="#000000" stroke="none" font-family="Arial" font-size="13px" font-style="normal" font-weight="normal" text-decoration="undefined" x="933" y="1222" text-anchor="start" dominant-baseline="text-before-edge" transform="matrix(1 0 0 1 -118 10)">Heatmap, ....</text></g></g><g><path fill="none" stroke="#000000" paint-order="fill stroke markers" d=" M 85 165 L 904 165" stroke-miterlimit="10" stroke-dasharray=""/></g><g><path fill="#000000" stroke="none" paint-order="stroke fill markers" d=" M 893.8373251423759 169.209517756016 L 904 165 L 893.8373251423758 160.790482243984"/></g><g><path fill="none" stroke="#000000" paint-order="fill stroke markers" d=" M 893.8373251423759 169.209517756016 L 904 165 L 893.8373251423758 160.790482243984 L 893.8373251423759 169.209517756016" stroke-miterlimit="10" stroke-dasharray=""/></g><g><rect fill="#ffffff" stroke="none" x="556" y="139" width="113.4453125" height="13" transform="matrix(1 0 0 1 -118 10)"/></g><g><g><path fill="none" stroke="none"/><text fill="#000000" stroke="none" font-family="Arial" font-size="13px" font-style="normal" font-weight="normal" text-decoration="undefined" x="612.72265625" y="145.5" text-anchor="middle" dominant-baseline="central" transform="matrix(1 0 0 1 -118 10)">1 : Création compte</text></g></g><g><rect fill="#ffffff" stroke="none" x="1022" y="155" width="14" height="28" transform="matrix(1 0 0 1 -118 10)"/></g><g><path fill="none" stroke="#000000" paint-order="fill stroke markers" d=" M 904 165 L 918 165 L 918 193 L 904 193 L 904 165 Z Z" stroke-miterlimit="10" stroke-dasharray=""/></g><g><path fill="none" stroke="#000000" paint-order="fill stroke markers" d=" M 85 234 L 904 234" stroke-miterlimit="10" stroke-dasharray=""/></g><g><path fill="#000000" stroke="none" paint-order="stroke fill markers" d=" M 893.8373251423759 238.209517756016 L 904 234 L 893.8373251423758 229.790482243984"/></g><g><path fill="none" stroke="#000000" paint-order="fill stroke markers" d=" M 893.8373251423759 238.209517756016 L 904 234 L 893.8373251423758 229.790482243984 L 893.8373251423759 238.209517756016" stroke-miterlimit="10" stroke-dasharray=""/></g><g><rect fill="#ffffff" stroke="none" x="488" y="208" width="249.79931640625" height="13" transform="matrix(1 0 0 1 -118 10)"/></g><g><g><path fill="none" stroke="none"/><text fill="#000000" stroke="none" font-family="Arial" font-size="13px" font-style="normal" font-weight="normal" text-decoration="undefined" x="612.899658203125" y="214.5" text-anchor="middle" dominant-baseline="central" transform="matrix(1 0 0 1 -118 10)">2 : Validation condition générale et RGPD</text></g></g><g><rect fill="#ffffff" stroke="none" x="1022" y="224" width="14" height="28" transform="matrix(1 0 0 1 -118 10)"/></g><g><path fill="none" stroke="#000000" paint-order="fill stroke markers" d=" M 904 234 L 918 234 L 918 262 L 904 262 L 904 234 Z Z" stroke-miterlimit="10" stroke-dasharray=""/></g><g><path fill="none" stroke="#000000" paint-order="fill stroke markers" d=" M 85 290 L 507 290" stroke-miterlimit="10" stroke-dasharray=""/></g><g><path fill="#000000" stroke="none" paint-order="stroke fill markers" d=" M 496.8373251423759 294.209517756016 L 507 290 L 496.8373251423758 285.790482243984"/></g><g><path fill="none" stroke="#000000" paint-order="fill stroke markers" d=" M 496.8373251423759 294.209517756016 L 507 290 L 496.8373251423758 285.790482243984 L 496.8373251423759 294.209517756016" stroke-miterlimit="10" stroke-dasharray=""/></g><g><rect fill="#ffffff" stroke="none" x="365" y="264" width="98.998046875" height="13" transform="matrix(1 0 0 1 -118 10)"/></g><g><g><path fill="none" stroke="none"/><text fill="#000000" stroke="none" font-family="Arial" font-size="13px" font-style="normal" font-weight="normal" text-decoration="undefined" x="414.4990234375" y="270.5" text-anchor="middle" dominant-baseline="central" transform="matrix(1 0 0 1 -118 10)">3 : Scan QRcode</text></g></g><g><rect fill="#ffffff" stroke="none" x="625" y="280" width="14" height="28" transform="matrix(1 0 0 1 -118 10)"/></g><g><path fill="none" stroke="#000000" paint-order="fill stroke markers" d=" M 507 290 L 521 290 L 521 318 L 507 318 L 507 290 Z Z" stroke-miterlimit="10" stroke-dasharray=""/></g><g><path fill="none" stroke="#000000" paint-order="fill stroke markers" d=" M 911 354 L 521 354" stroke-miterlimit="10" stroke-dasharray=""/></g><g><path fill="#000000" stroke="none" paint-order="stroke fill markers" d=" M 531.1626748576241 349.790482243984 L 521 354 L 531.1626748576241 358.209517756016"/></g><g><path fill="none" stroke="#000000" paint-order="fill stroke markers" d=" M 531.1626748576241 349.790482243984 L 521 354 L 531.1626748576241 358.209517756016 L 531.1626748576241 349.790482243984" stroke-miterlimit="10" stroke-dasharray=""/></g><g><rect fill="#ffffff" stroke="none" x="748" y="348" width="170.5234375" height="13" transform="matrix(1 0 0 1 -118 10)"/></g><g><g><path fill="none" stroke="none"/><text fill="#000000" stroke="none" font-family="Arial" font-size="13px" font-style="normal" font-weight="normal" text-decoration="undefined" x="833.26171875" y="354.5" text-anchor="middle" dominant-baseline="central" transform="matrix(1 0 0 1 -118 10)">4 : Association profil dispositif</text></g></g><g><rect fill="#ffffff" stroke="none" x="625" y="344" width="14" height="28" transform="matrix(1 0 0 1 -118 10)"/></g><g><path fill="none" stroke="#000000" paint-order="fill stroke markers" d=" M 507 354 L 521 354 L 521 382 L 507 382 L 507 354 Z Z" stroke-miterlimit="10" stroke-dasharray=""/></g><g><path fill="none" stroke="#000000" paint-order="fill stroke markers" d=" M 85 442 L 904 442" stroke-miterlimit="10" stroke-dasharray=""/></g><g><path fill="#000000" stroke="none" paint-order="stroke fill markers" d=" M 893.8373251423759 446.209517756016 L 904 442 L 893.8373251423758 437.790482243984"/></g><g><path fill="none" stroke="#000000" paint-order="fill stroke markers" d=" M 893.8373251423759 446.209517756016 L 904 442 L 893.8373251423758 437.790482243984 L 893.8373251423759 446.209517756016" stroke-miterlimit="10" stroke-dasharray=""/></g><g><rect fill="#ffffff" stroke="none" x="501" y="416" width="223.28515625" height="13" transform="matrix(1 0 0 1 -118 10)"/></g><g><g><path fill="none" stroke="none"/><text fill="#000000" stroke="none" font-family="Arial" font-size="13px" font-style="normal" font-weight="normal" text-decoration="undefined" x="612.642578125" y="422.5" text-anchor="middle" dominant-baseline="central" transform="matrix(1 0 0 1 -118 10)">5 : Informations personnelles du profil</text></g></g><g><rect fill="#ffffff" stroke="none" x="1022" y="432" width="14" height="28" transform="matrix(1 0 0 1 -118 10)"/></g><g><path fill="none" stroke="#000000" paint-order="fill stroke markers" d=" M 904 442 L 918 442 L 918 470 L 904 470 L 904 442 Z Z" stroke-miterlimit="10" stroke-dasharray=""/></g><g><path fill="none" stroke="#000000" paint-order="fill stroke markers" d=" M 85 514 L 507 514" stroke-miterlimit="10" stroke-dasharray=""/></g><g><path fill="#000000" stroke="none" paint-order="stroke fill markers" d=" M 496.8373251423759 518.209517756016 L 507 514 L 496.8373251423758 509.790482243984"/></g><g><path fill="none" stroke="#000000" paint-order="fill stroke markers" d=" M 496.8373251423759 518.209517756016 L 507 514 L 496.8373251423758 509.790482243984 L 496.8373251423759 518.209517756016" stroke-miterlimit="10" stroke-dasharray=""/></g><g><rect fill="#ffffff" stroke="none" x="348" y="488" width="133.70068359375" height="13" transform="matrix(1 0 0 1 -118 10)"/></g><g><g><path fill="none" stroke="none"/><text fill="#000000" stroke="none" font-family="Arial" font-size="13px" font-style="normal" font-weight="normal" text-decoration="undefined" x="414.850341796875" y="494.5" text-anchor="middle" dominant-baseline="central" transform="matrix(1 0 0 1 -118 10)">6 : Lance début activité</text></g></g><g><rect fill="#ffffff" stroke="none" x="625" y="504" width="14" height="28" transform="matrix(1 0 0 1 -118 10)"/></g><g><path fill="none" stroke="#000000" paint-order="fill stroke markers" d=" M 507 514 L 521 514 L 521 542 L 507 542 L 507 514 Z Z" stroke-miterlimit="10" stroke-dasharray=""/></g><g><path fill="none" stroke="#000000" paint-order="fill stroke markers" d=" M 515 578 L 904 578" stroke-miterlimit="10" stroke-dasharray=""/></g><g><path fill="#000000" stroke="none" paint-order="stroke fill markers" d=" M 893.8373251423759 582.209517756016 L 904 578 L 893.8373251423758 573.790482243984"/></g><g><path fill="none" stroke="#000000" paint-order="fill stroke markers" d=" M 893.8373251423759 582.209517756016 L 904 578 L 893.8373251423758 573.790482243984 L 893.8373251423759 582.209517756016" stroke-miterlimit="10" stroke-dasharray=""/></g><g><rect fill="#ffffff" stroke="none" x="748" y="552" width="159.00244140625" height="13" transform="matrix(1 0 0 1 -118 10)"/></g><g><g><path fill="none" stroke="none"/><text fill="#000000" stroke="none" font-family="Arial" font-size="13px" font-style="normal" font-weight="normal" text-decoration="undefined" x="827.501220703125" y="558.5" text-anchor="middle" dominant-baseline="central" transform="matrix(1 0 0 1 -118 10)">7 : Envoie signal début</text></g></g><g><rect fill="#ffffff" stroke="none" x="1022" y="568" width="14" height="28" transform="matrix(1 0 0 1 -118 10)"/></g><g><path fill="none" stroke="#000000" paint-order="fill stroke markers" d=" M 904 578 L 918 578 L 918 606 L 904 606 L 904 578 Z Z" stroke-miterlimit="10" stroke-dasharray=""/></g><g><path fill="none" stroke="#000000" paint-order="fill stroke markers" d=" M 912 642 L 942 642 L 942 662 L 918 662" stroke-miterlimit="10" stroke-dasharray=""/></g><g><path fill="#000000" stroke="none" paint-order="stroke fill markers" d=" M 928.1626748576241 657.790482243984 L 918 662 L 928.1626748576241 666.209517756016"/></g><g><path fill="none" stroke="#000000" paint-order="fill stroke markers" d=" M 928.1626748576241 657.790482243984 L 918 662 L 928.1626748576241 666.209517756016 L 928.1626748576241 657.790482243984" stroke-miterlimit="10" stroke-dasharray=""/></g><g><rect fill="#ffffff" stroke="none" x="941" y="635" width="256.54052734375" height="13" transform="matrix(1 0 0 1 -118 10)"/></g><g><g><path fill="none" stroke="none"/><text fill="#000000" stroke="none" font-family="Arial" font-size="13px" font-style="normal" font-weight="normal" text-decoration="undefined" x="1069.270263671875" y="641.5" text-anchor="middle" dominant-baseline="central" transform="matrix(1 0 0 1 -118 10)">8 : Association heure début avec le dispositif</text></g></g><g><rect fill="#ffffff" stroke="none" x="1022" y="652" width="14" height="28" transform="matrix(1 0 0 1 -118 10)"/></g><g><path fill="none" stroke="#000000" paint-order="fill stroke markers" d=" M 904 662 L 918 662 L 918 690 L 904 690 L 904 662 Z Z" stroke-miterlimit="10" stroke-dasharray=""/></g><g><path fill="none" stroke="#000000" paint-order="fill stroke markers" d=" M 85 827 L 507 827" stroke-miterlimit="10" stroke-dasharray=""/></g><g><path fill="#000000" stroke="none" paint-order="stroke fill markers" d=" M 496.8373251423759 831.209517756016 L 507 827 L 496.8373251423758 822.790482243984"/></g><g><path fill="none" stroke="#000000" paint-order="fill stroke markers" d=" M 496.8373251423759 831.209517756016 L 507 827 L 496.8373251423758 822.790482243984 L 496.8373251423759 831.209517756016" stroke-miterlimit="10" stroke-dasharray=""/></g><g><rect fill="#ffffff" stroke="none" x="369" y="801" width="90.30810546875" height="13" transform="matrix(1 0 0 1 -118 10)"/></g><g><g><path fill="none" stroke="none"/><text fill="#000000" stroke="none" font-family="Arial" font-size="13px" font-style="normal" font-weight="normal" text-decoration="undefined" x="414.154052734375" y="807.5" text-anchor="middle" dominant-baseline="central" transform="matrix(1 0 0 1 -118 10)">9 : Arrêt activité</text></g></g><g><rect fill="#ffffff" stroke="none" x="625" y="817" width="14" height="28" transform="matrix(1 0 0 1 -118 10)"/></g><g><path fill="none" stroke="#000000" paint-order="fill stroke markers" d=" M 507 827 L 521 827 L 521 855 L 507 855 L 507 827 Z Z" stroke-miterlimit="10" stroke-dasharray=""/></g><g><path fill="none" stroke="#000000" paint-order="fill stroke markers" d=" M 515 874 L 904 874" stroke-miterlimit="10" stroke-dasharray=""/></g><g><path fill="#000000" stroke="none" paint-order="stroke fill markers" d=" M 893.8373251423759 878.209517756016 L 904 874 L 893.8373251423758 869.790482243984"/></g><g><path fill="none" stroke="#000000" paint-order="fill stroke markers" d=" M 893.8373251423759 878.209517756016 L 904 874 L 893.8373251423758 869.790482243984 L 893.8373251423759 878.209517756016" stroke-miterlimit="10" stroke-dasharray=""/></g><g><rect fill="#ffffff" stroke="none" x="768" y="848" width="119.96435546875" height="13" transform="matrix(1 0 0 1 -118 10)"/></g><g><g><path fill="none" stroke="none"/><text fill="#000000" stroke="none" font-family="Arial" font-size="13px" font-style="normal" font-weight="normal" text-decoration="undefined" x="827.982177734375" y="854.5" text-anchor="middle" dominant-baseline="central" transform="matrix(1 0 0 1 -118 10)">10 : Envoie signal fin</text></g></g><g><rect fill="#ffffff" stroke="none" x="1022" y="864" width="14" height="28" transform="matrix(1 0 0 1 -118 10)"/></g><g><path fill="none" stroke="#000000" paint-order="fill stroke markers" d=" M 904 874 L 918 874 L 918 902 L 904 902 L 904 874 Z Z" stroke-miterlimit="10" stroke-dasharray=""/></g><g><path fill="none" stroke="#000000" paint-order="fill stroke markers" d=" M 912 962 L 942 962 L 942 982 L 918 982" stroke-miterlimit="10" stroke-dasharray=""/></g><g><path fill="#000000" stroke="none" paint-order="stroke fill markers" d=" M 928.1626748576241 977.790482243984 L 918 982 L 928.1626748576241 986.209517756016"/></g><g><path fill="none" stroke="#000000" paint-order="fill stroke markers" d=" M 928.1626748576241 977.790482243984 L 918 982 L 928.1626748576241 986.209517756016 L 928.1626748576241 977.790482243984" stroke-miterlimit="10" stroke-dasharray=""/></g><g><rect fill="#ffffff" stroke="none" x="1003" y="928" width="132.71044921875" height="13" transform="matrix(1 0 0 1 -118 10)"/></g><g><g><path fill="none" stroke="none"/><text fill="#000000" stroke="none" font-family="Arial" font-size="13px" font-style="normal" font-weight="normal" text-decoration="undefined" x="1069.355224609375" y="934.5" text-anchor="middle" dominant-baseline="central" transform="matrix(1 0 0 1 -118 10)">11 : Calcul coût activité</text></g></g><g><rect fill="#ffffff" stroke="none" x="1022" y="972" width="14" height="28" transform="matrix(1 0 0 1 -118 10)"/></g><g><path fill="none" stroke="#000000" paint-order="fill stroke markers" d=" M 904 982 L 918 982 L 918 1010 L 904 1010 L 904 982 Z Z" stroke-miterlimit="10" stroke-dasharray=""/></g><g><path fill="none" stroke="#000000" paint-order="fill stroke markers" d=" M 515 1074 L 904 1074" stroke-miterlimit="10" stroke-dasharray=""/></g><g><path fill="#000000" stroke="none" paint-order="stroke fill markers" d=" M 893.8373251423759 1078.2095177560159 L 904 1074 L 893.8373251423758 1069.7904822439841"/></g><g><path fill="none" stroke="#000000" paint-order="fill stroke markers" d=" M 893.8373251423759 1078.2095177560159 L 904 1074 L 893.8373251423758 1069.7904822439841 L 893.8373251423759 1078.2095177560159" stroke-miterlimit="10" stroke-dasharray=""/></g><g><rect fill="#ffffff" stroke="none" x="759" y="1048" width="137.30615234375" height="13" transform="matrix(1 0 0 1 -118 10)"/></g><g><g><path fill="none" stroke="none"/><text fill="#000000" stroke="none" font-family="Arial" font-size="13px" font-style="normal" font-weight="normal" text-decoration="undefined" x="827.653076171875" y="1054.5" text-anchor="middle" dominant-baseline="central" transform="matrix(1 0 0 1 -118 10)">12 : Envoie du parcours</text></g></g><g><rect fill="#ffffff" stroke="none" x="1022" y="1064" width="14" height="28" transform="matrix(1 0 0 1 -118 10)"/></g><g><path fill="none" stroke="#000000" paint-order="fill stroke markers" d=" M 904 1074 L 918 1074 L 918 1102 L 904 1102 L 904 1074 Z Z" stroke-miterlimit="10" stroke-dasharray=""/></g><g><path fill="none" stroke="#000000" paint-order="fill stroke markers" d=" M 122 402 L 1066 402 L 1066 484 L 122 484 L 122 402" stroke-miterlimit="10" stroke-dasharray=""/></g><g><path fill="#ffffff" stroke="none" paint-order="stroke fill markers" d=" M 122 402 L 122 425 L 263.0107421875 425 L 274.5107421875 413.5 L 274.5107421875 402 L 122 402"/></g><g><path fill="none" stroke="#000000" paint-order="fill stroke markers" d=" M 122 402 L 122 425 L 263.0107421875 425 L 274.5107421875 413.5 L 274.5107421875 402 L 122 402 L 122 402" stroke-miterlimit="10" stroke-dasharray=""/></g><g><g><path fill="none" stroke="none"/><text fill="#000000" stroke="none" font-family="Arial" font-size="13px" font-style="normal" font-weight="normal" text-decoration="undefined" x="322.541259765625" y="403.5" text-anchor="middle" dominant-baseline="central" transform="matrix(1 0 0 1 -118 10)">saisie infos persos</text></g></g><g><g><path fill="none" stroke="none"/><text fill="#000000" stroke="none" font-family="Arial" font-size="13px" font-style="normal" font-weight="bold" text-decoration="undefined" x="254.035888671875" y="403.5" text-anchor="middle" dominant-baseline="central" transform="matrix(1 0 0 1 -118 10)">opt</text></g></g><g><path fill="none" stroke="#000000" paint-order="fill stroke markers" d=" M 450 1026 L 1114 1026 L 1114 1130 L 450 1130 L 450 1026" stroke-miterlimit="10" stroke-dasharray=""/></g><g><path fill="#ffffff" stroke="none" paint-order="stroke fill markers" d=" M 450 1026 L 450 1049 L 608.37158203125 1049 L 619.87158203125 1037.5 L 619.87158203125 1026 L 450 1026"/></g><g><path fill="none" stroke="#000000" paint-order="fill stroke markers" d=" M 450 1026 L 450 1049 L 608.37158203125 1049 L 619.87158203125 1037.5 L 619.87158203125 1026 L 450 1026 L 450 1026" stroke-miterlimit="10" stroke-dasharray=""/></g><g><g><path fill="none" stroke="none"/><text fill="#000000" stroke="none" font-family="Arial" font-size="13px" font-style="normal" font-weight="normal" text-decoration="undefined" x="660.665771484375" y="1027.5" text-anchor="middle" dominant-baseline="central" transform="matrix(1 0 0 1 -118 10)">si condition acceptée</text></g></g><g><g><path fill="none" stroke="none"/><text fill="#000000" stroke="none" font-family="Arial" font-size="13px" font-style="normal" font-weight="bold" text-decoration="undefined" x="583.47998046875" y="1027.5" text-anchor="middle" dominant-baseline="central" transform="matrix(1 0 0 1 -118 10)">seq</text></g></g></g></svg>